<svg xmlns="http://www.w3.org/2000/svg" xmlns:xlink="http://www.w3.org/1999/xlink" width="2000" zoomAndPan="magnify" viewBox="0 0 1500 1499.999933" height="2000" preserveAspectRatio="xMidYMid meet" version="1.0"><defs><g/><clipPath id="56ec2069ea"><path d="M 13.695312 13.695312 L 1485.945312 13.695312 L 1485.945312 1485.945312 L 13.695312 1485.945312 Z M 13.695312 13.695312 " clip-rule="nonzero"/></clipPath><clipPath id="4a2ebb61c8"><rect x="0" width="1084" y="0" height="484"/></clipPath></defs><g clip-path="url(#56ec2069ea)"><path fill="#f2e9df" d="M 749.996094 13.695312 C 343.191406 13.695312 13.695312 343.191406 13.695312 749.996094 C 13.695312 1156.800781 343.191406 1486.296875 749.996094 1486.296875 C 1156.800781 1486.296875 1486.296875 1156.800781 1486.296875 749.996094 C 1486.296875 343.191406 1156.800781 13.695312 749.996094 13.695312 Z M 749.996094 13.695312 " fill-opacity="1" fill-rule="nonzero"/></g><g transform="matrix(1, 0, 0, 1, 208, 508)"><g clip-path="url(#4a2ebb61c8)"><g fill="#241a18" fill-opacity="1"><g transform="translate(1.345291, 350.65382)"><g><path d="M 1.875 -250.65625 C 10.613281 -250.65625 17.539062 -250.59375 22.65625 -250.46875 C 27.78125 -250.34375 32.09375 -250.15625 35.59375 -249.90625 C 39.09375 -249.65625 42.210938 -249.46875 44.953125 -249.34375 C 47.703125 -249.21875 51.078125 -249.15625 55.078125 -249.15625 C 58.828125 -249.15625 62.007812 -249.21875 64.625 -249.34375 C 67.25 -249.46875 70.25 -249.65625 73.625 -249.90625 C 77 -250.15625 81.179688 -250.34375 86.171875 -250.46875 C 91.171875 -250.59375 97.914062 -250.65625 106.40625 -250.65625 L 106.40625 -246.90625 C 103.15625 -246.90625 99.71875 -246.71875 96.09375 -246.34375 C 92.476562 -245.96875 89.109375 -245.15625 85.984375 -243.90625 C 82.859375 -242.65625 80.296875 -240.65625 78.296875 -237.90625 C 76.304688 -235.164062 75.3125 -231.421875 75.3125 -226.671875 C 75.3125 -224.179688 75.5625 -221.6875 76.0625 -219.1875 C 76.5625 -216.6875 77.1875 -214.3125 77.9375 -212.0625 L 129.265625 -52.453125 L 177.59375 -199.328125 L 170.46875 -221.8125 C 167.476562 -231.050781 163.421875 -237.539062 158.296875 -241.28125 C 153.179688 -245.03125 146.25 -246.90625 137.5 -246.90625 L 137.5 -250.65625 C 146.5 -250.65625 153.742188 -250.59375 159.234375 -250.46875 C 164.734375 -250.34375 169.289062 -250.15625 172.90625 -249.90625 C 176.53125 -249.65625 179.65625 -249.46875 182.28125 -249.34375 C 184.90625 -249.21875 187.960938 -249.15625 191.453125 -249.15625 C 194.703125 -249.15625 197.640625 -249.21875 200.265625 -249.34375 C 202.890625 -249.46875 206.070312 -249.65625 209.8125 -249.90625 C 213.5625 -250.15625 218.304688 -250.34375 224.046875 -250.46875 C 229.796875 -250.59375 237.539062 -250.65625 247.28125 -250.65625 L 247.28125 -246.90625 C 242.789062 -246.90625 238.359375 -246.53125 233.984375 -245.78125 C 229.609375 -245.03125 225.734375 -243.59375 222.359375 -241.46875 C 218.992188 -239.351562 216.3125 -236.359375 214.3125 -232.484375 C 212.3125 -228.609375 211.3125 -223.675781 211.3125 -217.6875 C 211.3125 -212.1875 211.9375 -206.8125 213.1875 -201.5625 C 214.4375 -196.320312 215.9375 -191.207031 217.6875 -186.21875 L 261.140625 -52.078125 L 310.984375 -205.3125 C 312.222656 -209.5625 313.09375 -213.125 313.59375 -216 C 314.09375 -218.875 314.34375 -221.429688 314.34375 -223.671875 C 314.34375 -233.171875 311.21875 -239.414062 304.96875 -242.40625 C 298.726562 -245.40625 290.863281 -246.90625 281.375 -246.90625 L 281.375 -250.65625 C 287.375 -250.65625 292.242188 -250.59375 295.984375 -250.46875 C 299.734375 -250.34375 302.921875 -250.21875 305.546875 -250.09375 C 308.171875 -249.96875 310.539062 -249.84375 312.65625 -249.71875 C 314.78125 -249.59375 317.46875 -249.53125 320.71875 -249.53125 C 323.71875 -249.53125 326.273438 -249.59375 328.390625 -249.71875 C 330.515625 -249.84375 332.765625 -249.96875 335.140625 -250.09375 C 337.515625 -250.21875 340.445312 -250.34375 343.9375 -250.46875 C 347.4375 -250.59375 352.0625 -250.65625 357.8125 -250.65625 L 357.8125 -246.90625 C 352.0625 -246.90625 347.25 -246.21875 343.375 -244.84375 C 339.507812 -243.46875 336.203125 -241.34375 333.453125 -238.46875 C 330.710938 -235.601562 328.40625 -232.046875 326.53125 -227.796875 C 324.65625 -223.554688 322.84375 -218.6875 321.09375 -213.1875 L 250.28125 4.5 L 243.53125 4.5 L 181.34375 -187.703125 L 118.015625 4.5 L 110.53125 4.5 L 37.09375 -220.6875 C 33.59375 -230.925781 29.21875 -237.726562 23.96875 -241.09375 C 18.726562 -244.46875 11.363281 -246.40625 1.875 -246.90625 Z M 1.875 -250.65625 "/></g></g></g><g fill="#241a18" fill-opacity="1"><g transform="translate(331.053199, 350.65382)"><g><path d="M 26.234375 -17.984375 C 26.234375 -23.972656 28.351562 -29.09375 32.59375 -33.34375 C 36.84375 -37.59375 41.960938 -39.71875 47.953125 -39.71875 C 53.953125 -39.71875 59.070312 -37.59375 63.3125 -33.34375 C 67.5625 -29.09375 69.6875 -23.972656 69.6875 -17.984375 C 69.6875 -11.984375 67.5625 -6.859375 63.3125 -2.609375 C 59.070312 1.628906 53.953125 3.75 47.953125 3.75 C 41.960938 3.75 36.84375 1.628906 32.59375 -2.609375 C 28.351562 -6.859375 26.234375 -11.984375 26.234375 -17.984375 Z M 26.234375 -17.984375 "/></g></g></g><g fill="#241a18" fill-opacity="1"><g transform="translate(426.968236, 350.65382)"><g><path d="M 168.984375 -250.65625 C 176.472656 -250.65625 182.460938 -250.59375 186.953125 -250.46875 C 191.453125 -250.34375 195.328125 -250.15625 198.578125 -249.90625 C 201.828125 -249.65625 204.820312 -249.46875 207.5625 -249.34375 C 210.3125 -249.21875 213.8125 -249.15625 218.0625 -249.15625 C 222.050781 -249.15625 225.484375 -249.21875 228.359375 -249.34375 C 231.234375 -249.46875 234.289062 -249.65625 237.53125 -249.90625 C 240.78125 -250.15625 244.65625 -250.34375 249.15625 -250.46875 C 253.65625 -250.59375 259.648438 -250.65625 267.140625 -250.65625 L 267.140625 -246.90625 C 263.140625 -246.90625 259.328125 -246.59375 255.703125 -245.96875 C 252.085938 -245.34375 248.90625 -244.15625 246.15625 -242.40625 C 243.40625 -240.664062 241.21875 -238.234375 239.59375 -235.109375 C 237.976562 -231.984375 237.171875 -227.800781 237.171875 -222.5625 L 237.171875 -28.09375 C 237.171875 -22.851562 237.976562 -18.671875 239.59375 -15.546875 C 241.21875 -12.421875 243.40625 -9.984375 246.15625 -8.234375 C 248.90625 -6.492188 252.085938 -5.3125 255.703125 -4.6875 C 259.328125 -4.0625 263.140625 -3.75 267.140625 -3.75 L 267.140625 0 C 259.648438 0 253.65625 -0.0625 249.15625 -0.1875 C 244.65625 -0.3125 240.78125 -0.5 237.53125 -0.75 C 234.289062 -1 231.234375 -1.1875 228.359375 -1.3125 C 225.484375 -1.4375 222.050781 -1.5 218.0625 -1.5 C 213.8125 -1.5 210.3125 -1.4375 207.5625 -1.3125 C 204.820312 -1.1875 201.828125 -1 198.578125 -0.75 C 195.328125 -0.5 191.453125 -0.3125 186.953125 -0.1875 C 182.460938 -0.0625 176.472656 0 168.984375 0 L 168.984375 -3.75 C 172.972656 -3.75 176.78125 -4.0625 180.40625 -4.6875 C 184.03125 -5.3125 187.210938 -6.492188 189.953125 -8.234375 C 192.703125 -9.984375 194.890625 -12.421875 196.515625 -15.546875 C 198.140625 -18.671875 198.953125 -22.851562 198.953125 -28.09375 L 198.953125 -125.140625 L 82.046875 -125.140625 L 82.046875 -28.09375 C 82.046875 -22.851562 82.859375 -18.671875 84.484375 -15.546875 C 86.109375 -12.421875 88.296875 -9.984375 91.046875 -8.234375 C 93.796875 -6.492188 96.976562 -5.3125 100.59375 -4.6875 C 104.21875 -4.0625 108.03125 -3.75 112.03125 -3.75 L 112.03125 0 C 104.53125 0 98.53125 -0.0625 94.03125 -0.1875 C 89.539062 -0.3125 85.671875 -0.5 82.421875 -0.75 C 79.179688 -1 76.125 -1.1875 73.25 -1.3125 C 70.375 -1.4375 66.9375 -1.5 62.9375 -1.5 C 58.695312 -1.5 55.203125 -1.4375 52.453125 -1.3125 C 49.703125 -1.1875 46.703125 -1 43.453125 -0.75 C 40.210938 -0.5 36.34375 -0.3125 31.84375 -0.1875 C 27.351562 -0.0625 21.359375 0 13.859375 0 L 13.859375 -3.75 C 17.859375 -3.75 21.664062 -4.0625 25.28125 -4.6875 C 28.90625 -5.3125 32.09375 -6.492188 34.84375 -8.234375 C 37.59375 -9.984375 39.78125 -12.421875 41.40625 -15.546875 C 43.03125 -18.671875 43.84375 -22.851562 43.84375 -28.09375 L 43.84375 -222.5625 C 43.84375 -227.800781 43.03125 -231.984375 41.40625 -235.109375 C 39.78125 -238.234375 37.59375 -240.664062 34.84375 -242.40625 C 32.09375 -244.15625 28.90625 -245.34375 25.28125 -245.96875 C 21.664062 -246.59375 17.859375 -246.90625 13.859375 -246.90625 L 13.859375 -250.65625 C 21.359375 -250.65625 27.351562 -250.59375 31.84375 -250.46875 C 36.34375 -250.34375 40.210938 -250.15625 43.453125 -249.90625 C 46.703125 -249.65625 49.703125 -249.46875 52.453125 -249.34375 C 55.203125 -249.21875 58.695312 -249.15625 62.9375 -249.15625 C 66.9375 -249.15625 70.375 -249.21875 73.25 -249.34375 C 76.125 -249.46875 79.179688 -249.65625 82.421875 -249.90625 C 85.671875 -250.15625 89.539062 -250.34375 94.03125 -250.46875 C 98.53125 -250.59375 104.53125 -250.65625 112.03125 -250.65625 L 112.03125 -246.90625 C 108.03125 -246.90625 104.21875 -246.59375 100.59375 -245.96875 C 96.976562 -245.34375 93.796875 -244.15625 91.046875 -242.40625 C 88.296875 -240.664062 86.109375 -238.234375 84.484375 -235.109375 C 82.859375 -231.984375 82.046875 -227.800781 82.046875 -222.5625 L 82.046875 -131.890625 L 198.953125 -131.890625 L 198.953125 -222.5625 C 198.953125 -227.800781 198.140625 -231.984375 196.515625 -235.109375 C 194.890625 -238.234375 192.703125 -240.664062 189.953125 -242.40625 C 187.210938 -244.15625 184.03125 -245.34375 180.40625 -245.96875 C 176.78125 -246.59375 172.972656 -246.90625 168.984375 -246.90625 Z M 168.984375 -250.65625 "/></g></g></g><g fill="#241a18" fill-opacity="1"><g transform="translate(707.96936, 350.65382)"><g><path d="M 26.234375 -17.984375 C 26.234375 -23.972656 28.351562 -29.09375 32.59375 -33.34375 C 36.84375 -37.59375 41.960938 -39.71875 47.953125 -39.71875 C 53.953125 -39.71875 59.070312 -37.59375 63.3125 -33.34375 C 67.5625 -29.09375 69.6875 -23.972656 69.6875 -17.984375 C 69.6875 -11.984375 67.5625 -6.859375 63.3125 -2.609375 C 59.070312 1.628906 53.953125 3.75 47.953125 3.75 C 41.960938 3.75 36.84375 1.628906 32.59375 -2.609375 C 28.351562 -6.859375 26.234375 -11.984375 26.234375 -17.984375 Z M 26.234375 -17.984375 "/></g></g></g><g fill="#241a18" fill-opacity="1"><g transform="translate(803.884398, 350.65382)"><g><path d="M 13.859375 -3.75 C 17.859375 -3.75 21.664062 -4.0625 25.28125 -4.6875 C 28.90625 -5.3125 32.09375 -6.492188 34.84375 -8.234375 C 37.59375 -9.984375 39.78125 -12.421875 41.40625 -15.546875 C 43.03125 -18.671875 43.84375 -22.851562 43.84375 -28.09375 L 43.84375 -222.5625 C 43.84375 -227.800781 43.03125 -231.984375 41.40625 -235.109375 C 39.78125 -238.234375 37.59375 -240.664062 34.84375 -242.40625 C 32.09375 -244.15625 28.90625 -245.34375 25.28125 -245.96875 C 21.664062 -246.59375 17.859375 -246.90625 13.859375 -246.90625 L 13.859375 -250.65625 C 21.359375 -250.65625 27.539062 -250.59375 32.40625 -250.46875 C 37.28125 -250.34375 41.523438 -250.28125 45.140625 -250.28125 C 48.765625 -250.28125 51.953125 -250.21875 54.703125 -250.09375 C 57.453125 -249.96875 60.320312 -249.90625 63.3125 -249.90625 C 69.3125 -249.90625 76.492188 -250.21875 84.859375 -250.84375 C 93.234375 -251.46875 101.414062 -251.78125 109.40625 -251.78125 C 139.625 -251.78125 162.476562 -246.347656 177.96875 -235.484375 C 193.457031 -224.617188 201.203125 -209.066406 201.203125 -188.828125 C 201.203125 -163.609375 193.144531 -145.25 177.03125 -133.75 C 160.914062 -122.257812 138.5 -116.515625 109.78125 -116.515625 C 105.03125 -116.515625 100.34375 -116.640625 95.71875 -116.890625 C 91.101562 -117.140625 86.546875 -117.515625 82.046875 -118.015625 L 82.046875 -28.09375 C 82.046875 -22.851562 82.859375 -18.671875 84.484375 -15.546875 C 86.109375 -12.421875 88.296875 -9.984375 91.046875 -8.234375 C 93.796875 -6.492188 96.976562 -5.3125 100.59375 -4.6875 C 104.21875 -4.0625 108.03125 -3.75 112.03125 -3.75 L 112.03125 0 C 104.53125 0 98.53125 -0.0625 94.03125 -0.1875 C 89.539062 -0.3125 85.671875 -0.5 82.421875 -0.75 C 79.179688 -1 76.125 -1.1875 73.25 -1.3125 C 70.375 -1.4375 66.9375 -1.5 62.9375 -1.5 C 58.695312 -1.5 55.203125 -1.4375 52.453125 -1.3125 C 49.703125 -1.1875 46.703125 -1 43.453125 -0.75 C 40.210938 -0.5 36.34375 -0.3125 31.84375 -0.1875 C 27.351562 -0.0625 21.359375 0 13.859375 0 Z M 82.046875 -124.390625 C 85.546875 -123.890625 88.984375 -123.515625 92.359375 -123.265625 C 95.734375 -123.015625 98.914062 -122.890625 101.90625 -122.890625 C 120.394531 -122.890625 134.507812 -127.882812 144.25 -137.875 C 153.988281 -147.863281 158.859375 -164.101562 158.859375 -186.59375 C 158.859375 -205.070312 154.050781 -219.492188 144.4375 -229.859375 C 134.820312 -240.222656 121.394531 -245.40625 104.15625 -245.40625 C 101.65625 -245.40625 99.09375 -245.21875 96.46875 -244.84375 C 93.851562 -244.46875 91.484375 -243.84375 89.359375 -242.96875 C 87.234375 -242.09375 85.484375 -240.71875 84.109375 -238.84375 C 82.734375 -236.976562 82.046875 -234.546875 82.046875 -231.546875 Z M 82.046875 -124.390625 "/></g></g></g><g fill="#241a18" fill-opacity="1"><g transform="translate(986.722484, 350.65382)"><g><path d="M 26.234375 -17.984375 C 26.234375 -23.972656 28.351562 -29.09375 32.59375 -33.34375 C 36.84375 -37.59375 41.960938 -39.71875 47.953125 -39.71875 C 53.953125 -39.71875 59.070312 -37.59375 63.3125 -33.34375 C 67.5625 -29.09375 69.6875 -23.972656 69.6875 -17.984375 C 69.6875 -11.984375 67.5625 -6.859375 63.3125 -2.609375 C 59.070312 1.628906 53.953125 3.75 47.953125 3.75 C 41.960938 3.75 36.84375 1.628906 32.59375 -2.609375 C 28.351562 -6.859375 26.234375 -11.984375 26.234375 -17.984375 Z M 26.234375 -17.984375 "/></g></g></g></g></g></svg>